<mxfile host="Electron" agent="Mozilla/5.0 (Windows NT 10.0; Win64; x64) AppleWebKit/537.36 (KHTML, like Gecko) draw.io/27.0.9 Chrome/134.0.6998.205 Electron/35.4.0 Safari/537.36" version="27.0.9">
  <diagram name="Page-1" id="gX5rI6Q5SttrfBfa65JK">
    <mxGraphModel dx="856" dy="561" grid="1" gridSize="10" guides="1" tooltips="1" connect="1" arrows="1" fold="1" page="1" pageScale="1" pageWidth="850" pageHeight="1100" math="0" shadow="0">
      <root>
        <mxCell id="0" />
        <mxCell id="1" parent="0" />
        <mxCell id="uPnQ8vJbBF42zQFGbX9v-1" value="" style="rounded=0;whiteSpace=wrap;html=1;fillColor=none;dashed=1;" parent="1" vertex="1">
          <mxGeometry x="40" y="80" width="120" height="400" as="geometry" />
        </mxCell>
        <mxCell id="uPnQ8vJbBF42zQFGbX9v-2" value="&lt;font style=&quot;font-size: 24px;&quot;&gt;Sources&lt;/font&gt;" style="rounded=0;whiteSpace=wrap;html=1;" parent="1" vertex="1">
          <mxGeometry x="55" y="60" width="90" height="30" as="geometry" />
        </mxCell>
        <mxCell id="uPnQ8vJbBF42zQFGbX9v-12" style="edgeStyle=orthogonalEdgeStyle;rounded=0;orthogonalLoop=1;jettySize=auto;html=1;entryX=0;entryY=0.5;entryDx=0;entryDy=0;" parent="1" source="uPnQ8vJbBF42zQFGbX9v-3" target="uPnQ8vJbBF42zQFGbX9v-9" edge="1">
          <mxGeometry relative="1" as="geometry" />
        </mxCell>
        <mxCell id="uPnQ8vJbBF42zQFGbX9v-13" style="edgeStyle=orthogonalEdgeStyle;rounded=0;orthogonalLoop=1;jettySize=auto;html=1;entryX=0;entryY=0.5;entryDx=0;entryDy=0;" parent="1" source="uPnQ8vJbBF42zQFGbX9v-3" target="uPnQ8vJbBF42zQFGbX9v-10" edge="1">
          <mxGeometry relative="1" as="geometry" />
        </mxCell>
        <mxCell id="uPnQ8vJbBF42zQFGbX9v-14" style="edgeStyle=orthogonalEdgeStyle;rounded=0;orthogonalLoop=1;jettySize=auto;html=1;" parent="1" source="uPnQ8vJbBF42zQFGbX9v-3" target="uPnQ8vJbBF42zQFGbX9v-11" edge="1">
          <mxGeometry relative="1" as="geometry" />
        </mxCell>
        <mxCell id="uPnQ8vJbBF42zQFGbX9v-3" value="" style="image;aspect=fixed;html=1;points=[];align=center;fontSize=12;image=img/lib/azure2/general/Folder_Blank.svg;" parent="1" vertex="1">
          <mxGeometry x="61" y="150" width="69" height="56.00000000000001" as="geometry" />
        </mxCell>
        <mxCell id="uPnQ8vJbBF42zQFGbX9v-4" value="CRM" style="text;html=1;align=center;verticalAlign=middle;resizable=0;points=[];autosize=1;strokeColor=none;fillColor=none;" parent="1" vertex="1">
          <mxGeometry x="66" y="200" width="50" height="30" as="geometry" />
        </mxCell>
        <mxCell id="uPnQ8vJbBF42zQFGbX9v-18" style="edgeStyle=orthogonalEdgeStyle;rounded=0;orthogonalLoop=1;jettySize=auto;html=1;" parent="1" source="uPnQ8vJbBF42zQFGbX9v-5" target="uPnQ8vJbBF42zQFGbX9v-15" edge="1">
          <mxGeometry relative="1" as="geometry" />
        </mxCell>
        <mxCell id="uPnQ8vJbBF42zQFGbX9v-19" style="edgeStyle=orthogonalEdgeStyle;rounded=0;orthogonalLoop=1;jettySize=auto;html=1;" parent="1" source="uPnQ8vJbBF42zQFGbX9v-5" target="uPnQ8vJbBF42zQFGbX9v-16" edge="1">
          <mxGeometry relative="1" as="geometry" />
        </mxCell>
        <mxCell id="uPnQ8vJbBF42zQFGbX9v-20" style="edgeStyle=orthogonalEdgeStyle;rounded=0;orthogonalLoop=1;jettySize=auto;html=1;entryX=0;entryY=0.5;entryDx=0;entryDy=0;" parent="1" source="uPnQ8vJbBF42zQFGbX9v-5" target="uPnQ8vJbBF42zQFGbX9v-17" edge="1">
          <mxGeometry relative="1" as="geometry" />
        </mxCell>
        <mxCell id="uPnQ8vJbBF42zQFGbX9v-5" value="" style="image;aspect=fixed;html=1;points=[];align=center;fontSize=12;image=img/lib/azure2/general/Folder_Blank.svg;" parent="1" vertex="1">
          <mxGeometry x="66" y="340" width="69" height="56.00000000000001" as="geometry" />
        </mxCell>
        <mxCell id="uPnQ8vJbBF42zQFGbX9v-6" value="ERP" style="text;html=1;align=center;verticalAlign=middle;resizable=0;points=[];autosize=1;strokeColor=none;fillColor=none;" parent="1" vertex="1">
          <mxGeometry x="70.5" y="388" width="50" height="30" as="geometry" />
        </mxCell>
        <mxCell id="uPnQ8vJbBF42zQFGbX9v-7" value="" style="rounded=1;whiteSpace=wrap;html=1;fillColor=#fff2cc;strokeColor=#d6b656;fillStyle=hatch;" parent="1" vertex="1">
          <mxGeometry x="200" y="80" width="120" height="400" as="geometry" />
        </mxCell>
        <mxCell id="uPnQ8vJbBF42zQFGbX9v-8" value="&lt;b&gt;BRONZE LAYER&lt;/b&gt;" style="rounded=0;whiteSpace=wrap;html=1;fillColor=#fff2cc;strokeColor=#d6b656;" parent="1" vertex="1">
          <mxGeometry x="210" y="55" width="100" height="40" as="geometry" />
        </mxCell>
        <mxCell id="8XTiiZBl36Ks375Vqv6y-28" style="edgeStyle=orthogonalEdgeStyle;rounded=0;orthogonalLoop=1;jettySize=auto;html=1;entryX=0;entryY=0.5;entryDx=0;entryDy=0;" edge="1" parent="1" source="uPnQ8vJbBF42zQFGbX9v-9" target="8XTiiZBl36Ks375Vqv6y-3">
          <mxGeometry relative="1" as="geometry" />
        </mxCell>
        <mxCell id="uPnQ8vJbBF42zQFGbX9v-9" value="crm_sales_details" style="rounded=0;whiteSpace=wrap;html=1;fillColor=#fff2cc;strokeColor=#d6b656;" parent="1" vertex="1">
          <mxGeometry x="210" y="110" width="100" height="40" as="geometry" />
        </mxCell>
        <mxCell id="8XTiiZBl36Ks375Vqv6y-29" style="edgeStyle=orthogonalEdgeStyle;rounded=0;orthogonalLoop=1;jettySize=auto;html=1;" edge="1" parent="1" source="uPnQ8vJbBF42zQFGbX9v-10" target="8XTiiZBl36Ks375Vqv6y-4">
          <mxGeometry relative="1" as="geometry" />
        </mxCell>
        <mxCell id="uPnQ8vJbBF42zQFGbX9v-10" value="crm_cust_info" style="rounded=0;whiteSpace=wrap;html=1;fillColor=#fff2cc;strokeColor=#d6b656;" parent="1" vertex="1">
          <mxGeometry x="210" y="158" width="100" height="40" as="geometry" />
        </mxCell>
        <mxCell id="8XTiiZBl36Ks375Vqv6y-30" style="edgeStyle=orthogonalEdgeStyle;rounded=0;orthogonalLoop=1;jettySize=auto;html=1;" edge="1" parent="1" source="uPnQ8vJbBF42zQFGbX9v-11" target="8XTiiZBl36Ks375Vqv6y-5">
          <mxGeometry relative="1" as="geometry" />
        </mxCell>
        <mxCell id="uPnQ8vJbBF42zQFGbX9v-11" value="crm_prd_info" style="rounded=0;whiteSpace=wrap;html=1;fillColor=#fff2cc;strokeColor=#d6b656;" parent="1" vertex="1">
          <mxGeometry x="210" y="206" width="100" height="40" as="geometry" />
        </mxCell>
        <mxCell id="8XTiiZBl36Ks375Vqv6y-31" style="edgeStyle=orthogonalEdgeStyle;rounded=0;orthogonalLoop=1;jettySize=auto;html=1;" edge="1" parent="1" source="uPnQ8vJbBF42zQFGbX9v-15" target="8XTiiZBl36Ks375Vqv6y-6">
          <mxGeometry relative="1" as="geometry" />
        </mxCell>
        <mxCell id="uPnQ8vJbBF42zQFGbX9v-15" value="erp_cust_az12" style="rounded=0;whiteSpace=wrap;html=1;fillColor=#fff2cc;strokeColor=#d6b656;" parent="1" vertex="1">
          <mxGeometry x="210" y="300" width="100" height="40" as="geometry" />
        </mxCell>
        <mxCell id="8XTiiZBl36Ks375Vqv6y-32" style="edgeStyle=orthogonalEdgeStyle;rounded=0;orthogonalLoop=1;jettySize=auto;html=1;" edge="1" parent="1" source="uPnQ8vJbBF42zQFGbX9v-16" target="8XTiiZBl36Ks375Vqv6y-7">
          <mxGeometry relative="1" as="geometry" />
        </mxCell>
        <mxCell id="uPnQ8vJbBF42zQFGbX9v-16" value="erp_loc_a101" style="rounded=0;whiteSpace=wrap;html=1;fillColor=#fff2cc;strokeColor=#d6b656;" parent="1" vertex="1">
          <mxGeometry x="210" y="348" width="100" height="40" as="geometry" />
        </mxCell>
        <mxCell id="8XTiiZBl36Ks375Vqv6y-33" style="edgeStyle=orthogonalEdgeStyle;rounded=0;orthogonalLoop=1;jettySize=auto;html=1;entryX=0;entryY=0.5;entryDx=0;entryDy=0;" edge="1" parent="1" source="uPnQ8vJbBF42zQFGbX9v-17" target="8XTiiZBl36Ks375Vqv6y-8">
          <mxGeometry relative="1" as="geometry" />
        </mxCell>
        <mxCell id="uPnQ8vJbBF42zQFGbX9v-17" value="erp_px_cat_g1v2" style="rounded=0;whiteSpace=wrap;html=1;fillColor=#fff2cc;strokeColor=#d6b656;" parent="1" vertex="1">
          <mxGeometry x="210" y="396" width="100" height="40" as="geometry" />
        </mxCell>
        <mxCell id="8XTiiZBl36Ks375Vqv6y-1" value="" style="rounded=1;whiteSpace=wrap;html=1;fillColor=#f5f5f5;strokeColor=#666666;fillStyle=hatch;fontColor=#333333;" vertex="1" parent="1">
          <mxGeometry x="390" y="80" width="120" height="400" as="geometry" />
        </mxCell>
        <mxCell id="8XTiiZBl36Ks375Vqv6y-2" value="&lt;b&gt;SILVER LAYER&lt;/b&gt;" style="rounded=0;whiteSpace=wrap;html=1;fillColor=#f5f5f5;strokeColor=#666666;fontColor=#333333;" vertex="1" parent="1">
          <mxGeometry x="400" y="55" width="100" height="40" as="geometry" />
        </mxCell>
        <mxCell id="8XTiiZBl36Ks375Vqv6y-3" value="crm_sales_details" style="rounded=0;whiteSpace=wrap;html=1;fillColor=#f5f5f5;strokeColor=#666666;fontColor=#333333;" vertex="1" parent="1">
          <mxGeometry x="400" y="110" width="100" height="40" as="geometry" />
        </mxCell>
        <mxCell id="8XTiiZBl36Ks375Vqv6y-4" value="crm_cust_info" style="rounded=0;whiteSpace=wrap;html=1;fillColor=#f5f5f5;strokeColor=#666666;fontColor=#333333;" vertex="1" parent="1">
          <mxGeometry x="400" y="158" width="100" height="40" as="geometry" />
        </mxCell>
        <mxCell id="8XTiiZBl36Ks375Vqv6y-5" value="crm_prd_info" style="rounded=0;whiteSpace=wrap;html=1;fillColor=#f5f5f5;strokeColor=#666666;fontColor=#333333;" vertex="1" parent="1">
          <mxGeometry x="400" y="206" width="100" height="40" as="geometry" />
        </mxCell>
        <mxCell id="8XTiiZBl36Ks375Vqv6y-6" value="erp_cust_az12" style="rounded=0;whiteSpace=wrap;html=1;fillColor=#f5f5f5;strokeColor=#666666;fontColor=#333333;" vertex="1" parent="1">
          <mxGeometry x="400" y="300" width="100" height="40" as="geometry" />
        </mxCell>
        <mxCell id="8XTiiZBl36Ks375Vqv6y-7" value="erp_loc_a101" style="rounded=0;whiteSpace=wrap;html=1;fillColor=#f5f5f5;strokeColor=#666666;fontColor=#333333;" vertex="1" parent="1">
          <mxGeometry x="400" y="348" width="100" height="40" as="geometry" />
        </mxCell>
        <mxCell id="8XTiiZBl36Ks375Vqv6y-8" value="erp_px_cat_g1v2" style="rounded=0;whiteSpace=wrap;html=1;fillColor=#f5f5f5;strokeColor=#666666;fontColor=#333333;" vertex="1" parent="1">
          <mxGeometry x="400" y="396" width="100" height="40" as="geometry" />
        </mxCell>
        <mxCell id="8XTiiZBl36Ks375Vqv6y-34" value="" style="rounded=1;whiteSpace=wrap;html=1;fillColor=#f0a30a;strokeColor=#BD7000;fillStyle=hatch;fontColor=#000000;" vertex="1" parent="1">
          <mxGeometry x="590" y="75" width="120" height="400" as="geometry" />
        </mxCell>
        <mxCell id="8XTiiZBl36Ks375Vqv6y-35" value="&lt;b&gt;GOLD LAYER&lt;/b&gt;" style="rounded=0;whiteSpace=wrap;html=1;fillColor=#f0a30a;strokeColor=#BD7000;fontColor=#000000;" vertex="1" parent="1">
          <mxGeometry x="600" y="50" width="100" height="40" as="geometry" />
        </mxCell>
        <mxCell id="8XTiiZBl36Ks375Vqv6y-36" value="fact_sales" style="rounded=0;whiteSpace=wrap;html=1;fillColor=#f0a30a;strokeColor=#BD7000;fontColor=#000000;" vertex="1" parent="1">
          <mxGeometry x="600" y="118" width="100" height="40" as="geometry" />
        </mxCell>
        <mxCell id="8XTiiZBl36Ks375Vqv6y-37" value="dim_customers" style="rounded=0;whiteSpace=wrap;html=1;fillColor=#f0a30a;strokeColor=#BD7000;fontColor=#000000;" vertex="1" parent="1">
          <mxGeometry x="600" y="228" width="100" height="40" as="geometry" />
        </mxCell>
        <mxCell id="8XTiiZBl36Ks375Vqv6y-38" value="dim_products" style="rounded=0;whiteSpace=wrap;html=1;fillColor=#f0a30a;strokeColor=#BD7000;fontColor=#000000;" vertex="1" parent="1">
          <mxGeometry x="600" y="348" width="100" height="40" as="geometry" />
        </mxCell>
        <mxCell id="8XTiiZBl36Ks375Vqv6y-42" value="" style="endArrow=classic;html=1;rounded=0;entryX=0;entryY=0.5;entryDx=0;entryDy=0;exitX=1;exitY=0.5;exitDx=0;exitDy=0;" edge="1" parent="1" source="8XTiiZBl36Ks375Vqv6y-3" target="8XTiiZBl36Ks375Vqv6y-36">
          <mxGeometry width="50" height="50" relative="1" as="geometry">
            <mxPoint x="530" y="180" as="sourcePoint" />
            <mxPoint x="580" y="130" as="targetPoint" />
          </mxGeometry>
        </mxCell>
        <mxCell id="8XTiiZBl36Ks375Vqv6y-43" value="" style="endArrow=classic;html=1;rounded=0;entryX=0;entryY=0.5;entryDx=0;entryDy=0;exitX=1;exitY=0.5;exitDx=0;exitDy=0;jumpStyle=gap;" edge="1" parent="1" target="8XTiiZBl36Ks375Vqv6y-37">
          <mxGeometry width="50" height="50" relative="1" as="geometry">
            <mxPoint x="500" y="180" as="sourcePoint" />
            <mxPoint x="600" y="188" as="targetPoint" />
          </mxGeometry>
        </mxCell>
        <mxCell id="8XTiiZBl36Ks375Vqv6y-44" value="" style="endArrow=classic;html=1;rounded=0;exitX=1;exitY=0.5;exitDx=0;exitDy=0;jumpStyle=gap;" edge="1" parent="1">
          <mxGeometry width="50" height="50" relative="1" as="geometry">
            <mxPoint x="500" y="316" as="sourcePoint" />
            <mxPoint x="600" y="250" as="targetPoint" />
          </mxGeometry>
        </mxCell>
        <mxCell id="8XTiiZBl36Ks375Vqv6y-45" value="" style="endArrow=classic;html=1;rounded=0;entryX=0;entryY=0.75;entryDx=0;entryDy=0;exitX=1;exitY=0.5;exitDx=0;exitDy=0;jumpStyle=gap;" edge="1" parent="1" target="8XTiiZBl36Ks375Vqv6y-37">
          <mxGeometry width="50" height="50" relative="1" as="geometry">
            <mxPoint x="500" y="364" as="sourcePoint" />
            <mxPoint x="600" y="372" as="targetPoint" />
          </mxGeometry>
        </mxCell>
        <mxCell id="8XTiiZBl36Ks375Vqv6y-46" value="" style="endArrow=classic;html=1;rounded=0;entryX=0;entryY=0.5;entryDx=0;entryDy=0;exitX=1;exitY=0.5;exitDx=0;exitDy=0;jumpStyle=gap;" edge="1" parent="1" target="8XTiiZBl36Ks375Vqv6y-38">
          <mxGeometry width="50" height="50" relative="1" as="geometry">
            <mxPoint x="500" y="228" as="sourcePoint" />
            <mxPoint x="600" y="236" as="targetPoint" />
          </mxGeometry>
        </mxCell>
        <mxCell id="8XTiiZBl36Ks375Vqv6y-47" value="" style="endArrow=classic;html=1;rounded=0;entryX=0;entryY=0.5;entryDx=0;entryDy=0;exitX=1;exitY=0.5;exitDx=0;exitDy=0;jumpStyle=gap;" edge="1" parent="1" target="8XTiiZBl36Ks375Vqv6y-38">
          <mxGeometry width="50" height="50" relative="1" as="geometry">
            <mxPoint x="500" y="418" as="sourcePoint" />
            <mxPoint x="600" y="426" as="targetPoint" />
          </mxGeometry>
        </mxCell>
      </root>
    </mxGraphModel>
  </diagram>
</mxfile>
